<svg width="207" height="215" viewBox="0 0 207 215" fill="none" xmlns="http://www.w3.org/2000/svg">
<path d="M150.593 98.3686L143.164 98.5091L139.402 98.5643C138.145 98.5894 136.883 98.5844 135.62 98.5944H135.4V98.3686L135.375 92.0321V91.7812H135.625L143.114 91.8114C145.609 91.8164 148.108 91.8665 150.603 91.8916H150.743V92.0271C150.733 93.1007 150.698 94.1694 150.678 95.228L150.593 98.3686ZM150.593 98.3686L150.522 95.1678C150.497 94.1142 150.467 93.0656 150.457 92.0271L150.593 92.1625C148.098 92.1876 145.599 92.2428 143.104 92.2428L135.615 92.2729L135.866 92.0221L135.841 98.3586L135.615 98.1328C136.853 98.1429 138.085 98.1379 139.322 98.1629L143.044 98.2181L150.593 98.3686Z" fill="#929292"/>
<path d="M179.641 90.3463L182.591 85.5851L181.133 84.682C180.708 84.4161 180.472 83.9295 180.517 83.4277C180.542 83.1518 180.552 82.8709 180.542 82.5899C180.532 82.0882 180.793 81.6166 181.239 81.3808L182.746 80.568L180.102 75.6262L178.594 76.439C178.153 76.6748 177.617 76.6347 177.206 76.3487C176.976 76.1881 176.74 76.0426 176.495 75.9072C176.054 75.6664 175.779 75.2048 175.794 74.6981L175.849 72.9822L170.259 72.8066L170.209 74.5275C170.194 75.0342 169.883 75.4707 169.427 75.6864C169.302 75.7466 169.182 75.8068 169.062 75.8721C168.941 75.9373 168.821 76.0075 168.706 76.0778C168.275 76.3386 167.744 76.3537 167.318 76.0878L165.851 75.1797L162.9 79.9409L164.358 80.849C164.784 81.1149 165.019 81.6015 164.974 82.1032C164.949 82.3792 164.939 82.6601 164.949 82.9361C164.959 83.4378 164.699 83.9044 164.253 84.1452L162.745 84.9579L165.39 89.8997L166.898 89.087C167.338 88.8512 167.874 88.8913 168.285 89.1773C168.516 89.3378 168.751 89.4833 168.996 89.6138C169.437 89.8546 169.713 90.3162 169.698 90.8229L169.643 92.5437L175.233 92.7193L175.288 90.9985C175.303 90.4968 175.613 90.0603 176.064 89.8446C176.189 89.7844 176.31 89.7241 176.435 89.6589C176.555 89.5937 176.675 89.5235 176.791 89.4532C177.221 89.1923 177.757 89.1773 178.188 89.4432L179.641 90.3463ZM174.907 86.8092C172.678 88.0083 169.903 87.1705 168.706 84.9329C167.509 82.7003 168.345 79.9158 170.574 78.7167C172.803 77.5177 175.583 78.3605 176.781 80.5931C177.978 82.8307 177.136 85.6102 174.907 86.8092Z" fill="#929292"/>
<path d="M29.1329 123.028L32.0833 118.267L30.6256 117.364C30.1998 117.098 29.9644 116.611 30.0095 116.109C30.0345 115.833 30.0446 115.552 30.0345 115.272C30.0245 114.77 30.285 114.298 30.7308 114.062L32.2385 113.25L29.5937 108.308L28.086 109.121C27.6452 109.356 27.1092 109.316 26.6985 109.03C26.4681 108.87 26.2327 108.724 25.9872 108.589C25.5464 108.348 25.2709 107.886 25.2859 107.38L25.341 105.664L19.7509 105.488L19.7008 107.209C19.6858 107.716 19.3752 108.152 18.9194 108.368C18.7942 108.428 18.674 108.488 18.5537 108.554C18.4335 108.619 18.3133 108.689 18.1981 108.759C17.7673 109.02 17.2364 109.035 16.8106 108.769L15.3429 107.861L12.3926 112.623L13.8502 113.531C14.276 113.797 14.5114 114.283 14.4663 114.785C14.4413 115.061 14.4313 115.342 14.4413 115.618C14.4513 116.119 14.1908 116.586 13.745 116.827L12.2373 117.64L14.8821 122.581L16.3898 121.769C16.8306 121.533 17.3666 121.573 17.7773 121.859C18.0078 122.019 18.2432 122.165 18.4886 122.295C18.9294 122.536 19.2049 122.998 19.1899 123.505L19.1348 125.225L24.7249 125.401L24.78 123.68C24.7951 123.178 25.1056 122.742 25.5564 122.526C25.6817 122.466 25.8019 122.406 25.9271 122.341C26.0473 122.275 26.1675 122.205 26.2827 122.135C26.7135 121.874 27.2495 121.859 27.6803 122.125L29.1329 123.028ZM24.3943 119.491C22.1653 120.69 19.3903 119.852 18.1931 117.614C16.9959 115.382 17.8324 112.597 20.0615 111.398C22.2905 110.199 25.0706 111.042 26.2677 113.275C27.4699 115.512 26.6284 118.292 24.3943 119.491Z" fill="#929292"/>
<path d="M91.005 40.852L89.0465 37.4504L88.0096 38.0525C87.7041 38.2281 87.3284 38.213 87.0329 38.0174C86.8676 37.912 86.7023 37.8117 86.5269 37.7214C86.2114 37.5608 86.011 37.2447 86.011 36.8935V35.6895H82.0889V36.8935C82.0889 37.2447 81.8885 37.5608 81.573 37.7214C81.3976 37.8117 81.2273 37.907 81.067 38.0174C80.7715 38.208 80.3958 38.2281 80.0903 38.0525L79.0534 37.4504L77.0949 40.852L78.1367 41.454C78.4423 41.6296 78.6126 41.9658 78.5926 42.322C78.5876 42.4173 78.5876 42.5126 78.5876 42.613C78.5876 42.7083 78.5876 42.8036 78.5926 42.904C78.6126 43.2552 78.4423 43.5913 78.1367 43.7669L77.0898 44.374L79.0484 47.7755L80.0903 47.1735C80.3958 46.9979 80.7715 47.0129 81.067 47.2086C81.2273 47.314 81.3976 47.4143 81.573 47.4996C81.8885 47.6601 82.0889 47.9762 82.0889 48.3274V49.5315H86.011V48.3274C86.011 47.9762 86.2114 47.6601 86.5269 47.4996C86.7023 47.4093 86.8676 47.314 87.0329 47.2086C87.3284 47.0129 87.7041 46.9979 88.0096 47.1735L89.0515 47.7755L91.0101 44.374L89.9682 43.7719C89.6626 43.5963 89.4973 43.2602 89.5123 42.909C89.5173 42.8137 89.5174 42.7133 89.5174 42.618C89.5174 42.5227 89.5173 42.4274 89.5123 42.327C89.4923 41.9758 89.6626 41.6397 89.9682 41.4591L91.005 40.852ZM87.2583 42.613C87.2583 44.389 85.8207 45.8289 84.0474 45.8289C82.2742 45.8289 80.8366 44.389 80.8366 42.613C80.8366 40.8369 82.2742 39.3971 84.0474 39.3971C85.8257 39.392 87.2583 40.8369 87.2583 42.613Z" fill="#929292"/>
<path d="M113.817 135.736H96.0293V137.196H113.817V135.736Z" fill="#37474F"/>
<path d="M113.817 137.639H96.0293V139.099H113.817V137.639Z" fill="#37474F"/>
<path d="M113.817 139.539H96.0293V140.999H113.817V139.539Z" fill="#37474F"/>
<path d="M113.817 141.441H96.0293V142.901H113.817V141.441Z" fill="#37474F"/>
<path d="M113.817 143.342H96.0293V144.802H113.817V143.342Z" fill="#37474F"/>
<path d="M121.52 181.266H87.6982V182.726H121.52V181.266Z" fill="#37474F"/>
<path d="M121.52 183.168H87.6982V184.628H121.52V183.168Z" fill="#37474F"/>
<path d="M121.52 185.068H87.6982V186.528H121.52V185.068Z" fill="#37474F"/>
<path d="M121.52 186.971H87.6982V188.431H121.52V186.971Z" fill="#37474F"/>
<path d="M121.52 188.871H87.6982V190.331H121.52V188.871Z" fill="#37474F"/>
<path d="M72.8614 123.67C72.8765 123.474 65.458 120.986 65.458 120.986L65.8938 95.454L75.7316 93.3418L72.8614 123.67Z" fill="#F8A41B"/>
<path opacity="0.2" d="M72.8614 123.67C72.8765 123.474 65.458 120.986 65.458 120.986L65.8938 95.454L75.7316 93.3418L72.8614 123.67Z" fill="#929292"/>
<path d="M140.814 133.696C140.865 133.505 148.689 133.726 148.689 133.726L157.049 109.604L148.538 104.23L140.814 133.696Z" fill="#F8A41B"/>
<path opacity="0.2" d="M140.814 133.696C140.865 133.505 148.689 133.726 148.689 133.726L157.049 109.604L148.538 104.23L140.814 133.696Z" fill="#929292"/>
<path d="M71.4336 133.073C71.4336 133.073 74.1836 91.7823 76.5979 78.2012C76.5979 78.2012 126.398 81.974 153.282 92.264C153.282 92.264 139.422 140.493 138.705 142.886C138.7 142.886 103.632 135.968 71.4336 133.073Z" fill="#F8A41B"/>
<path opacity="0.1" d="M115.884 83.7148C115.073 88.6867 114.256 93.6587 113.41 98.6205L110.845 113.511L110.705 113.3L127.39 117.269L135.725 119.291L144.05 121.353L135.68 119.476L127.32 117.56L110.62 113.652L110.449 113.611L110.479 113.441L113.139 98.5653C114.031 93.6185 114.952 88.6667 115.884 83.7148Z" fill="#929292"/>
<path opacity="0.1" d="M114.051 86.5489C114.061 87.0055 113.695 87.4721 113.174 87.5172C112.924 87.5423 112.648 87.462 112.443 87.2814C112.238 87.1008 112.112 86.8249 112.112 86.5489C112.112 86.268 112.238 85.9921 112.443 85.8165C112.648 85.6358 112.924 85.5556 113.174 85.5807C113.7 85.6258 114.061 86.0924 114.051 86.5489ZM114.051 86.5489C114.051 86.3182 113.946 86.0924 113.775 85.9469C113.605 85.8014 113.38 85.7412 113.174 85.7663C112.753 85.8165 112.483 86.1927 112.488 86.5489C112.483 86.9052 112.753 87.2814 113.174 87.3316C113.38 87.3567 113.605 87.2965 113.775 87.151C113.951 87.0055 114.051 86.7797 114.051 86.5489Z" fill="#929292"/>
<path opacity="0.1" d="M113.179 92.6896C113.189 93.1461 112.823 93.6127 112.302 93.6579C112.052 93.683 111.776 93.6027 111.571 93.4221C111.365 93.2415 111.24 92.9655 111.24 92.6896C111.24 92.4086 111.365 92.1327 111.571 91.9571C111.776 91.7765 112.052 91.6962 112.302 91.7213C112.823 91.7664 113.189 92.238 113.179 92.6896ZM113.179 92.6896C113.179 92.4588 113.074 92.233 112.903 92.0875C112.733 91.942 112.508 91.8818 112.302 91.9069C111.881 91.9571 111.611 92.3334 111.616 92.6896C111.611 93.0458 111.881 93.4221 112.302 93.4722C112.508 93.4973 112.733 93.4371 112.903 93.2916C113.074 93.1461 113.174 92.9204 113.179 92.6896Z" fill="#929292"/>
<path opacity="0.1" d="M112.103 99.1818C112.113 99.6383 111.747 100.105 111.226 100.15C110.976 100.175 110.7 100.095 110.495 99.9142C110.289 99.7336 110.164 99.4577 110.164 99.1818C110.164 98.9058 110.289 98.6249 110.495 98.4493C110.7 98.2687 110.976 98.1884 111.226 98.2135C111.747 98.2586 112.113 98.7302 112.103 99.1818ZM112.103 99.1818C112.103 98.951 111.997 98.7252 111.827 98.5797C111.657 98.4342 111.431 98.374 111.226 98.3991C110.805 98.4493 110.535 98.8256 110.54 99.1818C110.535 99.538 110.805 99.9142 111.226 99.9644C111.431 99.9895 111.657 99.9293 111.827 99.7838C111.997 99.6383 112.098 99.4125 112.103 99.1818Z" fill="#929292"/>
<path opacity="0.1" d="M111.025 105.674C111.035 106.131 110.67 106.597 110.149 106.642C109.898 106.667 109.623 106.587 109.418 106.406C109.212 106.226 109.087 105.95 109.087 105.674C109.087 105.398 109.212 105.117 109.418 104.941C109.623 104.761 109.898 104.681 110.149 104.706C110.67 104.751 111.035 105.217 111.025 105.674ZM111.025 105.674C111.025 105.443 110.92 105.217 110.75 105.072C110.58 104.926 110.354 104.866 110.149 104.891C109.728 104.941 109.458 105.318 109.463 105.674C109.458 106.03 109.728 106.406 110.149 106.457C110.354 106.482 110.58 106.421 110.75 106.276C110.92 106.131 111.02 105.905 111.025 105.674Z" fill="#929292"/>
<path opacity="0.1" d="M114.691 116.029C114.701 116.486 114.336 116.953 113.815 116.998C113.564 117.023 113.289 116.943 113.084 116.762C112.878 116.581 112.753 116.305 112.753 116.029C112.753 115.748 112.878 115.473 113.084 115.297C113.289 115.116 113.564 115.036 113.815 115.061C114.341 115.101 114.701 115.573 114.691 116.029ZM114.691 116.029C114.691 115.799 114.586 115.573 114.416 115.427C114.246 115.282 114.02 115.222 113.815 115.247C113.394 115.297 113.124 115.673 113.129 116.029C113.124 116.386 113.394 116.762 113.815 116.812C114.02 116.837 114.246 116.777 114.416 116.631C114.591 116.481 114.691 116.255 114.691 116.029Z" fill="#929292"/>
<path opacity="0.1" d="M120.813 117.526C120.823 117.982 120.457 118.449 119.936 118.494C119.685 118.519 119.41 118.439 119.205 118.258C118.999 118.077 118.874 117.801 118.874 117.526C118.874 117.245 118.999 116.969 119.205 116.793C119.41 116.612 119.685 116.532 119.936 116.557C120.457 116.597 120.818 117.069 120.813 117.526ZM120.813 117.526C120.813 117.295 120.707 117.069 120.537 116.923C120.367 116.778 120.141 116.718 119.936 116.743C119.515 116.793 119.245 117.169 119.25 117.526C119.245 117.882 119.515 118.258 119.936 118.308C120.141 118.333 120.367 118.273 120.537 118.128C120.707 117.977 120.808 117.751 120.813 117.526Z" fill="#929292"/>
<path opacity="0.1" d="M126.929 119.02C126.939 119.476 126.573 119.943 126.052 119.988C125.802 120.013 125.526 119.933 125.321 119.752C125.115 119.572 124.99 119.296 124.99 119.02C124.99 118.739 125.115 118.463 125.321 118.287C125.526 118.107 125.802 118.026 126.052 118.051C126.573 118.091 126.939 118.563 126.929 119.02ZM126.929 119.02C126.929 118.789 126.824 118.563 126.653 118.418C126.483 118.272 126.258 118.212 126.052 118.237C125.631 118.287 125.361 118.663 125.366 119.02C125.361 119.376 125.631 119.752 126.052 119.802C126.258 119.827 126.483 119.767 126.653 119.622C126.824 119.471 126.929 119.245 126.929 119.02Z" fill="#929292"/>
<path opacity="0.1" d="M133.045 120.51C133.055 120.966 132.689 121.433 132.168 121.478C131.918 121.503 131.642 121.423 131.437 121.242C131.232 121.062 131.106 120.786 131.106 120.51C131.106 120.229 131.232 119.953 131.437 119.777C131.642 119.597 131.918 119.517 132.168 119.542C132.694 119.587 133.055 120.058 133.045 120.51ZM133.045 120.51C133.045 120.279 132.94 120.053 132.769 119.908C132.599 119.762 132.374 119.702 132.168 119.727C131.748 119.777 131.477 120.154 131.482 120.51C131.477 120.866 131.748 121.242 132.168 121.293C132.374 121.318 132.599 121.257 132.769 121.112C132.945 120.966 133.045 120.741 133.045 120.51Z" fill="#929292"/>
<path opacity="0.1" d="M139.161 122.074C139.136 122.531 138.736 122.968 138.215 122.973C137.959 122.978 137.694 122.877 137.503 122.682C137.313 122.486 137.213 122.205 137.233 121.924C137.258 121.648 137.398 121.382 137.619 121.217C137.839 121.051 138.12 120.996 138.37 121.036C138.881 121.126 139.207 121.618 139.161 122.074ZM139.161 122.074C139.177 121.844 139.091 121.613 138.936 121.452C138.776 121.297 138.555 121.217 138.35 121.227C137.929 121.242 137.629 121.598 137.604 121.954C137.569 122.305 137.814 122.707 138.23 122.787C138.43 122.827 138.661 122.782 138.841 122.651C139.026 122.521 139.141 122.3 139.161 122.074Z" fill="#929292"/>
<path opacity="0.1" d="M109.948 112.166C109.958 112.623 109.593 113.089 109.072 113.134C108.821 113.16 108.546 113.079 108.34 112.899C108.135 112.718 108.01 112.442 108.01 112.166C108.01 111.89 108.135 111.609 108.34 111.434C108.546 111.253 108.821 111.173 109.072 111.198C109.593 111.243 109.958 111.71 109.948 112.166ZM109.948 112.166C109.948 111.935 109.843 111.71 109.673 111.564C109.502 111.419 109.277 111.358 109.072 111.383C108.651 111.434 108.38 111.81 108.385 112.166C108.38 112.522 108.651 112.899 109.072 112.949C109.277 112.974 109.502 112.914 109.673 112.768C109.843 112.623 109.943 112.397 109.948 112.166Z" fill="#929292"/>
<path opacity="0.2" d="M99.6435 122.92C105.451 117.69 105.926 108.735 100.704 102.919C95.4825 97.1024 86.5419 96.6268 80.7347 101.857C74.9274 107.087 74.4526 116.041 79.6741 121.858C84.8957 127.674 93.8363 128.15 99.6435 122.92Z" fill="#929292"/>
<path d="M100.79 116.41C103.008 110.543 100.057 103.987 94.1992 101.766C88.3419 99.5453 81.7962 102.501 79.579 108.368C77.3618 114.234 80.3128 120.79 86.1701 123.011C92.0275 125.232 98.5732 122.276 100.79 116.41Z" fill="#263238"/>
<path d="M89.5047 108.213L86.8545 107.783L86.4252 110.438L89.0754 110.868L89.5047 108.213Z" fill="#F8A41B"/>
<path d="M87.285 105.129L84.6348 104.699L84.2055 107.354L86.8557 107.784L87.285 105.129Z" fill="#F8A41B"/>
<path d="M97.8895 106.85L95.2393 106.42L94.8099 109.074L97.4602 109.504L97.8895 106.85Z" fill="#F8A41B"/>
<path d="M85.578 115.69L82.9277 115.26L82.4984 117.914L85.1487 118.344L85.578 115.69Z" fill="#F8A41B"/>
<path d="M96.1815 117.41L93.5312 116.98L93.1019 119.635L95.7522 120.065L96.1815 117.41Z" fill="#F8A41B"/>
<path d="M88.658 113.467L86.0078 113.037L85.5785 115.692L88.2287 116.122L88.658 113.467Z" fill="#F8A41B"/>
<path d="M91.7332 111.27L89.083 110.84L88.6537 113.494L91.3039 113.924L91.7332 111.27Z" fill="#F8A41B"/>
<path d="M94.8084 109.076L92.1582 108.646L91.7289 111.301L94.3791 111.731L94.8084 109.076Z" fill="#F8A41B"/>
<path d="M93.9598 114.323L91.3096 113.893L90.8803 116.547L93.5305 116.977L93.9598 114.323Z" fill="#F8A41B"/>
<path d="M139.081 127.297C144.031 121.246 143.146 112.323 137.106 107.365C131.065 102.407 122.155 103.293 117.205 109.344C112.256 115.394 113.14 124.318 119.181 129.275C125.222 134.233 134.131 133.347 139.081 127.297Z" fill="#F8A41B"/>
<path opacity="0.2" d="M139.081 127.297C144.031 121.246 143.146 112.323 137.106 107.365C131.065 102.407 122.155 103.293 117.205 109.344C112.256 115.394 113.14 124.318 119.181 129.275C125.222 134.233 134.131 133.347 139.081 127.297Z" fill="#929292"/>
<path opacity="0.2" d="M141.903 121.604C141.837 121.884 141.762 122.15 141.682 122.421L114.117 116.531C114.182 116.04 114.272 115.548 114.388 115.046C116.191 107.435 123.815 102.734 131.419 104.541C139.007 106.352 143.706 113.988 141.903 121.604Z" fill="#929292"/>
<path d="M132.513 128.809C138.292 126.391 141.02 119.738 138.605 113.95C136.191 108.161 129.549 105.43 123.77 107.848C117.991 110.266 115.263 116.919 117.677 122.707C120.092 128.495 126.734 131.227 132.513 128.809Z" fill="#263238"/>
<path d="M130.996 112.12L128.384 111.498L125.293 124.526L127.905 125.147L130.996 112.12Z" fill="#F8A41B"/>
<path d="M142.719 121.337L113.767 114.444C115.665 106.436 123.69 101.49 131.684 103.391C139.679 105.298 144.622 113.33 142.719 121.337Z" fill="#F8A41B"/>
<path opacity="0.2" d="M142.719 121.337L113.767 114.444C115.665 106.436 123.69 101.49 131.684 103.391C139.679 105.298 144.622 113.33 142.719 121.337Z" fill="#929292"/>
<path opacity="0.1" d="M103.537 126.745C103.612 125.611 104.028 124.462 104.844 123.554C105.25 123.098 105.786 122.737 106.382 122.521C106.978 122.3 107.625 122.26 108.236 122.315C108.857 122.39 109.493 122.606 110.014 123.003C110.525 123.404 110.91 123.926 111.141 124.493C111.612 125.616 111.667 126.815 111.436 127.929C111.246 126.815 110.961 125.737 110.44 124.849C109.924 123.956 109.102 123.399 108.13 123.314C107.134 123.188 106.167 123.459 105.385 124.116C104.599 124.774 104.003 125.717 103.537 126.745Z" fill="#929292"/>
<path d="M75.3057 97.8573C75.4209 96.3421 75.5912 94.837 75.7364 93.3269C75.8967 91.8218 76.062 90.3116 76.2474 88.8115C76.4227 87.3064 76.618 85.8063 76.8084 84.3012C76.9987 82.7961 77.2141 81.301 77.4145 79.7959L77.4696 79.3945L77.8753 79.4196C81.1362 79.6253 84.3921 79.8912 87.643 80.2223C89.271 80.3879 90.8939 80.5786 92.5118 80.7893C94.1298 81.0201 95.7527 81.2358 97.3606 81.5318L87.5829 80.9247L77.8152 80.2926L78.2761 79.9163C78.0557 81.4164 77.8503 82.9165 77.6148 84.4116C77.3844 85.9067 77.154 87.4068 76.9086 88.9018C76.6681 90.3969 76.4127 91.892 76.1472 93.3821C75.8667 94.8721 75.6112 96.3672 75.3057 97.8573Z" fill="white"/>
<path d="M77.6602 109.302C77.9908 107.481 78.8122 105.75 79.9243 104.239C80.1998 103.858 80.5153 103.507 80.8159 103.146C81.1415 102.81 81.4821 102.479 81.8177 102.147C82.1834 101.851 82.554 101.555 82.9297 101.269C83.3304 101.014 83.7211 100.753 84.1269 100.507C84.5526 100.301 84.9784 100.09 85.4092 99.8947L86.7516 99.4281L88.1442 99.1422C88.61 99.0719 89.0859 99.0569 89.5517 99.0217C91.4351 98.9716 93.2935 99.378 94.9966 100.065C93.1833 99.7241 91.375 99.5385 89.5968 99.7091C87.8186 99.8746 86.0954 100.406 84.5526 101.279C82.9948 102.127 81.6223 103.301 80.4552 104.666C79.2981 106.036 78.3364 107.586 77.6602 109.302Z" fill="white"/>
<path d="M116.666 113.129C117.242 111.373 118.299 109.768 119.606 108.428C119.932 108.092 120.293 107.786 120.638 107.47C121.009 107.179 121.39 106.903 121.77 106.622C122.176 106.376 122.582 106.135 122.992 105.905C123.423 105.709 123.849 105.503 124.285 105.318C124.736 105.172 125.186 105.022 125.642 104.886L127.035 104.61L128.452 104.52C128.923 104.515 129.394 104.57 129.865 104.6C131.738 104.811 133.522 105.468 135.114 106.386C133.366 105.799 131.603 105.363 129.815 105.282C128.032 105.202 126.248 105.488 124.6 106.14C122.942 106.767 121.415 107.741 120.077 108.925C118.74 110.119 117.578 111.524 116.666 113.129Z" fill="white"/>
<path d="M73.0167 158.518C69.3952 158.518 61.4658 157.7 56.3615 151.128C49.8347 142.72 52.194 126.59 52.2942 125.902L55.1293 126.334C55.1043 126.489 52.8552 141.932 58.6256 149.362C64.2659 156.627 74.4994 155.583 74.6046 155.573L74.9252 158.428C74.81 158.443 74.1087 158.518 73.0167 158.518Z" fill="#F8A41B"/>
<path opacity="0.4" d="M73.0167 158.518C69.3952 158.518 61.4658 157.7 56.3615 151.128C49.8347 142.72 52.194 126.59 52.2942 125.902L55.1293 126.334C55.1043 126.489 52.8552 141.932 58.6256 149.362C64.2659 156.627 74.4994 155.583 74.6046 155.573L74.9252 158.428C74.81 158.443 74.1087 158.518 73.0167 158.518Z" fill="white"/>
<path d="M55.9608 128.291C55.4449 128.291 54.9139 128.246 54.3779 128.161C49.5943 127.383 47.4804 124.519 46.5437 122.251C45.6071 119.978 45.3917 117.229 45.9026 114.078L51.9686 115.061C51.653 117.013 51.7432 118.729 52.229 119.903C52.5747 120.736 53.2409 121.739 55.3647 122.085C56.3365 122.241 57.3834 122.161 58.4854 120.5C59.3319 119.221 59.8428 117.475 60.0232 116.371L66.0892 117.354C65.9489 118.222 65.3528 121.263 63.6097 123.902C61.7012 126.771 59.0314 128.291 55.9608 128.291Z" fill="#F8A41B"/>
<path d="M79.0077 166.738C78.9977 166.608 73.8684 165.785 73.8684 165.785L71.3789 149.023L77.5902 146.564L79.0077 166.738Z" fill="#F8A41B"/>
<path opacity="0.2" d="M79.0077 166.738C78.9977 166.608 73.8684 165.785 73.8684 165.785L71.3789 149.023L77.5902 146.564L79.0077 166.738Z" fill="#929292"/>
<path d="M129.694 166.766C129.709 166.636 134.854 165.928 134.854 165.928L137.714 149.227L131.558 146.633L129.694 166.766Z" fill="#F8A41B"/>
<path opacity="0.2" d="M129.694 166.766C129.709 166.636 134.854 165.928 134.854 165.928L137.714 149.227L131.558 146.633L129.694 166.766Z" fill="#929292"/>
<path d="M76.8737 142.816C76.8737 142.816 118.344 141.04 132.349 143.378C132.349 143.378 128.237 183.569 128.011 184.347C128.011 184.347 86.7616 184.237 80.3149 184.347C80.3149 184.347 76.8186 157.621 76.8737 142.816Z" fill="#F8A41B"/>
<path opacity="0.2" d="M89.4668 153.828C89.4668 153.828 112.103 152.935 119.752 154.114C119.752 154.114 117.508 174.378 117.382 174.774C117.382 174.774 94.8616 174.719 91.3452 174.774C91.3452 174.769 89.8024 160.902 89.4668 153.828Z" fill="#929292"/>
<path opacity="0.2" d="M92.5624 174.764C92.0465 174.764 91.6307 174.769 91.3452 174.774C91.3452 174.774 89.8024 160.902 89.4668 153.828C89.4668 153.828 89.9827 153.807 90.8794 153.777L92.5624 174.764Z" fill="#929292"/>
<path d="M99.2393 158.831C97.972 158.43 96.6195 159.137 96.2188 160.407C95.8181 161.681 96.5244 163.03 97.7917 163.432C99.059 163.833 100.411 163.126 100.807 161.856C101.213 160.587 100.507 159.233 99.2393 158.831ZM100.532 161.766C100.181 162.885 98.9938 163.502 97.8818 163.151C96.7698 162.8 96.1487 161.611 96.4993 160.492C96.85 159.378 98.0371 158.756 99.1541 159.107C100.266 159.463 100.882 160.652 100.532 161.766ZM99.2393 158.831C97.972 158.43 96.6195 159.137 96.2188 160.407C95.8181 161.681 96.5244 163.03 97.7917 163.432C99.059 163.833 100.411 163.126 100.807 161.856C101.213 160.587 100.507 159.233 99.2393 158.831ZM100.532 161.766C100.181 162.885 98.9938 163.502 97.8818 163.151C96.7698 162.8 96.1487 161.611 96.4993 160.492C96.85 159.378 98.0371 158.756 99.1541 159.107C100.266 159.463 100.882 160.652 100.532 161.766ZM99.2393 158.831C97.972 158.43 96.6195 159.137 96.2188 160.407C95.8181 161.681 96.5244 163.03 97.7917 163.432C99.059 163.833 100.411 163.126 100.807 161.856C101.213 160.587 100.507 159.233 99.2393 158.831ZM100.532 161.766C100.181 162.885 98.9938 163.502 97.8818 163.151C96.7698 162.8 96.1487 161.611 96.4993 160.492C96.85 159.378 98.0371 158.756 99.1541 159.107C100.266 159.463 100.882 160.652 100.532 161.766ZM100.041 156.283C97.3659 155.44 94.5157 156.93 93.6742 159.604C92.8327 162.283 94.3154 165.138 96.9902 165.98C99.6601 166.823 102.515 165.338 103.357 162.659C104.198 159.98 102.716 157.125 100.041 156.283ZM101.168 161.967C100.707 163.432 99.1441 164.25 97.6765 163.788C96.2138 163.326 95.3973 161.761 95.8582 160.291C96.319 158.826 97.8868 158.008 99.3495 158.47C100.812 158.937 101.629 160.502 101.168 161.967ZM100.812 161.856C101.213 160.587 100.507 159.233 99.2393 158.831C97.972 158.43 96.6195 159.137 96.2188 160.407C95.8181 161.681 96.5244 163.03 97.7917 163.432C99.059 163.833 100.411 163.126 100.812 161.856ZM100.532 161.766C100.181 162.885 98.9938 163.502 97.8818 163.151C96.7698 162.8 96.1487 161.611 96.4993 160.492C96.85 159.378 98.0371 158.756 99.1541 159.107C100.266 159.463 100.882 160.652 100.532 161.766ZM99.2393 158.831C97.972 158.43 96.6195 159.137 96.2188 160.407C95.8181 161.681 96.5244 163.03 97.7917 163.432C99.059 163.833 100.411 163.126 100.807 161.856C101.213 160.587 100.507 159.233 99.2393 158.831ZM100.532 161.766C100.181 162.885 98.9938 163.502 97.8818 163.151C96.7698 162.8 96.1487 161.611 96.4993 160.492C96.85 159.378 98.0371 158.756 99.1541 159.107C100.266 159.463 100.882 160.652 100.532 161.766ZM99.2393 158.831C97.972 158.43 96.6195 159.137 96.2188 160.407C95.8181 161.681 96.5244 163.03 97.7917 163.432C99.059 163.833 100.411 163.126 100.807 161.856C101.213 160.587 100.507 159.233 99.2393 158.831ZM100.532 161.766C100.181 162.885 98.9938 163.502 97.8818 163.151C96.7698 162.8 96.1487 161.611 96.4993 160.492C96.85 159.378 98.0371 158.756 99.1541 159.107C100.266 159.463 100.882 160.652 100.532 161.766Z" fill="#F8A41B"/>
<path d="M97.9824 166.069L96.124 165.482L95.8135 166.832L97.4665 167.359L97.9824 166.069Z" fill="#F8A41B"/>
<path d="M94.6413 164.325L93.7396 162.594L92.5625 163.326L93.364 164.866L94.6413 164.325Z" fill="#F8A41B"/>
<path d="M93.509 160.722L94.0951 158.856L92.7426 158.545L92.2217 160.201L93.509 160.722Z" fill="#F8A41B"/>
<path d="M95.252 157.371L96.9802 156.468L96.2488 155.289L94.7061 156.097L95.252 157.371Z" fill="#F8A41B"/>
<path d="M98.8486 156.237L100.707 156.824L101.023 155.474L99.3646 154.947L98.8486 156.237Z" fill="#F8A41B"/>
<path d="M102.194 157.983L103.096 159.719L104.268 158.982L103.467 157.441L102.194 157.983Z" fill="#F8A41B"/>
<path d="M103.327 161.584L102.741 163.45L104.089 163.761L104.61 162.106L103.327 161.584Z" fill="#F8A41B"/>
<path d="M101.584 164.936L99.8506 165.839L100.587 167.018L102.125 166.215L101.584 164.936Z" fill="#F8A41B"/>
<path d="M107.424 165.923C106.673 165.431 105.671 165.647 105.18 166.4C104.689 167.152 104.905 168.156 105.656 168.647C106.407 169.139 107.409 168.923 107.9 168.171C108.386 167.418 108.176 166.41 107.424 165.923ZM107.735 168.06C107.304 168.723 106.422 168.908 105.766 168.477C105.105 168.045 104.92 167.162 105.35 166.505C105.781 165.843 106.663 165.657 107.319 166.089C107.975 166.52 108.161 167.398 107.735 168.06ZM107.424 165.923C106.673 165.431 105.671 165.647 105.18 166.4C104.689 167.152 104.905 168.156 105.656 168.647C106.407 169.139 107.409 168.923 107.9 168.171C108.386 167.418 108.176 166.41 107.424 165.923ZM107.735 168.06C107.304 168.723 106.422 168.908 105.766 168.477C105.105 168.045 104.92 167.162 105.35 166.505C105.781 165.843 106.663 165.657 107.319 166.089C107.975 166.52 108.161 167.398 107.735 168.06ZM107.424 165.923C106.673 165.431 105.671 165.647 105.18 166.4C104.689 167.152 104.905 168.156 105.656 168.647C106.407 169.139 107.409 168.923 107.9 168.171C108.386 167.418 108.176 166.41 107.424 165.923ZM107.735 168.06C107.304 168.723 106.422 168.908 105.766 168.477C105.105 168.045 104.92 167.162 105.35 166.505C105.781 165.843 106.663 165.657 107.319 166.089C107.975 166.52 108.161 167.398 107.735 168.06ZM108.406 164.413C106.823 163.379 104.709 163.831 103.677 165.411C102.651 166.997 103.096 169.114 104.674 170.147C106.252 171.176 108.371 170.729 109.403 169.144C110.43 167.569 109.984 165.446 108.406 164.413ZM108.11 168.306C107.544 169.174 106.382 169.42 105.521 168.858C104.654 168.296 104.409 167.127 104.975 166.264C105.541 165.396 106.703 165.15 107.564 165.717C108.426 166.274 108.671 167.438 108.11 168.306ZM107.9 168.171C108.391 167.418 108.176 166.415 107.429 165.923C106.678 165.431 105.676 165.647 105.185 166.4C104.694 167.152 104.91 168.156 105.661 168.647C106.407 169.134 107.409 168.918 107.9 168.171ZM107.735 168.06C107.304 168.723 106.422 168.908 105.766 168.477C105.105 168.045 104.92 167.162 105.35 166.505C105.781 165.843 106.663 165.657 107.319 166.089C107.975 166.52 108.161 167.398 107.735 168.06ZM107.424 165.923C106.673 165.431 105.671 165.647 105.18 166.4C104.689 167.152 104.905 168.156 105.656 168.647C106.407 169.139 107.409 168.923 107.9 168.171C108.386 167.418 108.176 166.41 107.424 165.923ZM107.735 168.06C107.304 168.723 106.422 168.908 105.766 168.477C105.105 168.045 104.92 167.162 105.35 166.505C105.781 165.843 106.663 165.657 107.319 166.089C107.975 166.52 108.161 167.398 107.735 168.06ZM107.424 165.923C106.673 165.431 105.671 165.647 105.18 166.4C104.689 167.152 104.905 168.156 105.656 168.647C106.407 169.139 107.409 168.923 107.9 168.171C108.386 167.418 108.176 166.41 107.424 165.923ZM107.735 168.06C107.304 168.723 106.422 168.908 105.766 168.477C105.105 168.045 104.92 167.162 105.35 166.505C105.781 165.843 106.663 165.657 107.319 166.089C107.975 166.52 108.161 167.398 107.735 168.06Z" fill="#E4E4E4"/>
<path d="M105.306 170.389L104.204 169.672L103.758 170.495L104.735 171.132L105.306 170.389Z" fill="#E4E4E4"/>
<path d="M103.447 168.653L103.177 167.363L102.285 167.629L102.526 168.773L103.447 168.653Z" fill="#E4E4E4"/>
<path d="M103.367 166.109L104.084 165.005L103.262 164.559L102.626 165.542L103.367 166.109Z" fill="#E4E4E4"/>
<path d="M105.101 164.253L106.388 163.982L106.123 163.084L104.98 163.33L105.101 164.253Z" fill="#E4E4E4"/>
<path d="M107.64 164.167L108.742 164.89L109.187 164.067L108.206 163.43L107.64 164.167Z" fill="#E4E4E4"/>
<path d="M109.493 165.909L109.764 167.194L110.66 166.933L110.42 165.789L109.493 165.909Z" fill="#E4E4E4"/>
<path d="M109.579 168.453L108.862 169.552L109.679 169.998L110.315 169.02L109.579 168.453Z" fill="#E4E4E4"/>
<path d="M107.84 170.309L106.558 170.58L106.818 171.478L107.96 171.232L107.84 170.309Z" fill="#E4E4E4"/>
<path d="M131.347 179.672L132.94 179.968L137.498 149.048L135.685 148.717L131.347 179.672Z" fill="#F8A41B"/>
<path d="M117.387 174.77L119.756 154.109L135.685 148.711C135.685 148.711 131.347 180.002 131.347 179.666L117.387 174.77Z" fill="#F8A41B"/>
<path opacity="0.4" d="M117.387 174.77L119.756 154.109L135.685 148.711C135.685 148.711 131.347 180.002 131.347 179.666L117.387 174.77Z" fill="white"/>
<path d="M78.7776 154.946C78.5171 153.236 78.3768 151.51 78.2716 149.784C78.2216 148.921 78.2015 148.053 78.1815 147.19C78.1665 146.327 78.1514 145.459 78.1765 144.596L78.1815 144.37L78.4019 144.36C81.5676 144.19 84.7284 143.984 87.8941 143.844C91.0598 143.688 94.2256 143.543 97.3913 143.447C94.2356 143.733 91.0748 143.979 87.9141 144.205C84.7534 144.451 81.5927 144.631 78.4319 144.847L78.6573 144.606L78.6423 147.19L78.6724 149.774C78.6774 150.637 78.6924 151.5 78.7175 152.363L78.7776 154.946Z" fill="white"/>
<path d="M121.976 154.415C122.962 153.943 123.964 153.507 124.981 153.105C125.993 152.694 127.015 152.302 128.047 151.946C129.078 151.595 130.115 151.249 131.172 150.953C132.224 150.657 133.286 150.381 134.373 150.205L134.639 150.16L134.588 150.416C134.338 151.756 134.078 153.09 133.767 154.42C133.882 153.06 134.047 151.71 134.223 150.361L134.443 150.572C133.391 150.822 132.349 151.118 131.308 151.424C130.266 151.736 129.229 152.062 128.197 152.403L121.976 154.415Z" fill="white"/>
<path opacity="0.1" d="M85.6699 142.9L85.9354 148.068L86.1658 153.236L86.5666 163.576L86.8771 173.916L87.0023 179.088L87.0875 184.261L86.817 179.093L86.5866 173.926L86.1909 163.586L85.8803 153.246L85.7551 148.073L85.6699 142.9Z" fill="#929292"/>
<path opacity="0.1" d="M84.192 146.016C84.2922 146.463 84.0267 146.99 83.5258 147.14C83.2853 147.215 82.9998 147.19 82.7594 147.055C82.524 146.919 82.3486 146.673 82.2935 146.403C82.2384 146.132 82.3036 145.836 82.4739 145.62C82.6392 145.404 82.8946 145.269 83.1451 145.244C83.661 145.178 84.1118 145.565 84.192 146.016ZM84.192 146.016C84.1469 145.79 84.0016 145.59 83.8063 145.479C83.6109 145.369 83.3755 145.359 83.1852 145.419C82.7844 145.55 82.5891 145.976 82.6642 146.322C82.7293 146.673 83.0699 146.99 83.4907 146.954C83.6961 146.939 83.9065 146.834 84.0417 146.658C84.182 146.483 84.2371 146.242 84.192 146.016Z" fill="#929292"/>
<path opacity="0.1" d="M84.5474 152.211C84.6476 152.658 84.3821 153.185 83.8812 153.335C83.6408 153.411 83.3553 153.385 83.1148 153.25C82.8794 153.115 82.7041 152.869 82.649 152.598C82.5939 152.327 82.659 152.031 82.8293 151.815C82.9946 151.599 83.2501 151.464 83.5005 151.439C84.0165 151.374 84.4673 151.76 84.5474 152.211ZM84.5474 152.211C84.5024 151.986 84.3571 151.785 84.1617 151.675C83.9664 151.564 83.731 151.554 83.5406 151.614C83.1399 151.745 82.9445 152.171 83.0197 152.518C83.0848 152.869 83.4254 153.185 83.8462 153.15C84.0515 153.13 84.2619 153.029 84.3972 152.854C84.5324 152.678 84.5875 152.432 84.5474 152.211Z" fill="#929292"/>
<path opacity="0.1" d="M84.773 158.785C84.8732 159.231 84.6077 159.758 84.1068 159.909C83.8664 159.984 83.5809 159.959 83.3404 159.823C83.105 159.688 82.9297 159.442 82.8746 159.171C82.8195 158.9 82.8846 158.604 83.0549 158.388C83.2202 158.173 83.4757 158.037 83.7261 158.012C84.2421 157.952 84.6929 158.338 84.773 158.785ZM84.773 158.785C84.728 158.559 84.5827 158.358 84.3873 158.248C84.192 158.137 83.9566 158.127 83.7662 158.188C83.3655 158.318 83.1701 158.745 83.2453 159.091C83.3104 159.442 83.651 159.758 84.0718 159.723C84.2771 159.703 84.4875 159.602 84.6228 159.427C84.758 159.251 84.8131 159.01 84.773 158.785Z" fill="#929292"/>
<path opacity="0.1" d="M84.9987 165.362C85.0989 165.808 84.8334 166.335 84.3325 166.486C84.092 166.561 83.8065 166.536 83.5661 166.4C83.3307 166.265 83.1553 166.019 83.1002 165.748C83.0451 165.477 83.1103 165.181 83.2756 164.965C83.4409 164.75 83.6963 164.614 83.9468 164.589C84.4677 164.524 84.9185 164.915 84.9987 165.362ZM84.9987 165.362C84.9536 165.136 84.8083 164.935 84.613 164.825C84.4176 164.715 84.1822 164.705 83.9919 164.765C83.5911 164.895 83.3958 165.322 83.4709 165.668C83.536 166.019 83.8767 166.335 84.2974 166.3C84.5028 166.285 84.7132 166.18 84.8484 166.004C84.9837 165.828 85.0388 165.588 84.9987 165.362Z" fill="#929292"/>
<path opacity="0.1" d="M85.2242 171.94C85.3244 172.386 85.0589 172.913 84.558 173.064C84.3176 173.139 84.032 173.114 83.7916 172.978C83.5562 172.843 83.3809 172.597 83.3258 172.326C83.2707 172.055 83.3358 171.759 83.5061 171.544C83.6714 171.328 83.9269 171.192 84.1773 171.167C84.6932 171.102 85.1441 171.493 85.2242 171.94ZM85.2242 171.94C85.1791 171.714 85.0339 171.513 84.8385 171.403C84.6432 171.293 84.4077 171.283 84.2174 171.343C83.8167 171.473 83.6213 171.9 83.6964 172.246C83.7616 172.597 84.1022 172.913 84.5229 172.878C84.7283 172.863 84.9387 172.758 85.0739 172.582C85.2092 172.406 85.2643 172.166 85.2242 171.94Z" fill="#929292"/>
<path opacity="0.1" d="M85.4489 178.516C85.5491 178.963 85.2836 179.489 84.7827 179.64C84.5422 179.715 84.2567 179.69 84.0163 179.555C83.7809 179.419 83.6055 179.173 83.5504 178.902C83.4953 178.631 83.5605 178.335 83.7258 178.12C83.8911 177.904 84.1465 177.769 84.397 177.743C84.9179 177.678 85.3687 178.07 85.4489 178.516ZM85.4489 178.516C85.4038 178.29 85.2585 178.09 85.0632 177.979C84.8678 177.869 84.6324 177.859 84.4421 177.919C84.0413 178.05 83.846 178.476 83.9211 178.822C83.9862 179.173 84.3268 179.489 84.7476 179.454C84.953 179.434 85.1634 179.334 85.2986 179.158C85.4339 178.983 85.489 178.742 85.4489 178.516Z" fill="#929292"/>
<path d="M87.4775 188.571L63.998 195.697L64.829 198.444L88.3084 191.317L87.4775 188.571Z" fill="#F8A41B"/>
<path opacity="0.4" d="M87.4775 188.571L63.998 195.697L64.829 198.444L88.3084 191.317L87.4775 188.571Z" fill="white"/>
<path d="M76.2403 191.048L73.5098 191.918L74.8003 195.982L77.5308 195.112L76.2403 191.048Z" fill="#F8A41B"/>
<path d="M64.642 202.473L58.586 176.193L40.2979 180.538L49.2992 206.145L64.642 202.473Z" fill="#F8A41B"/>
<path d="M68.6992 201.138L64.6419 202.473L58.5859 176.193L64.4215 177.583L68.6992 201.138Z" fill="#F8A41B"/>
<path opacity="0.2" d="M68.6992 201.138L64.6419 202.473L58.5859 176.193L64.4215 177.583L68.6992 201.138Z" fill="#929292"/>
<path d="M87.9046 193.061C89.6225 193.061 91.0152 191.666 91.0152 189.946C91.0152 188.225 89.6225 186.83 87.9046 186.83C86.1866 186.83 84.7939 188.225 84.7939 189.946C84.7939 191.666 86.1866 193.061 87.9046 193.061Z" fill="#F8A41B"/>
<path d="M119.932 188.496L119.096 191.24L142.56 198.416L143.397 195.671L119.932 188.496Z" fill="#F8A41B"/>
<path opacity="0.4" d="M119.932 188.496L119.096 191.24L142.56 198.416L143.397 195.671L119.932 188.496Z" fill="white"/>
<path d="M131.182 190.984L129.883 195.045L132.611 195.921L133.911 191.86L131.182 190.984Z" fill="#F8A41B"/>
<path d="M142.748 202.448L148.864 176.184L167.142 180.563L158.086 206.155L142.748 202.448Z" fill="#F8A41B"/>
<path d="M138.695 201.103L142.748 202.448L148.864 176.184L143.023 177.563L138.695 201.103Z" fill="#F8A41B"/>
<path opacity="0.2" d="M138.695 201.103L142.748 202.448L148.864 176.184L143.023 177.563L138.695 201.103Z" fill="#929292"/>
<path d="M116.405 189.864C116.4 191.585 117.793 192.985 119.511 192.99C121.229 192.995 122.627 191.6 122.632 189.88C122.637 188.159 121.244 186.759 119.526 186.754C117.808 186.749 116.41 188.144 116.405 189.864Z" fill="#F8A41B"/>
<path d="M139.899 157.456C139.974 157.386 147.512 150.382 156.384 152.775C165.455 155.228 172.949 168.915 173.019 169.05L175.538 167.686C175.213 167.079 167.398 152.775 157.125 150.001C146.676 147.181 138.271 155.033 137.915 155.369L139.899 157.456Z" fill="#F8A41B"/>
<path opacity="0.4" d="M139.899 157.456C139.974 157.386 147.512 150.382 156.384 152.775C165.455 155.228 172.949 168.915 173.019 169.05L175.538 167.686C175.213 167.079 167.398 152.775 157.125 150.001C146.676 147.181 138.271 155.033 137.915 155.369L139.899 157.456Z" fill="white"/>
<path d="M169.678 182.833L175.113 179.958C174.592 178.97 173.951 177.269 173.855 175.734C173.735 173.747 174.522 173.045 175.393 172.588C177.297 171.58 178.434 171.981 179.21 172.438C180.297 173.08 181.404 174.399 182.326 176.145L187.761 173.271C186.273 170.451 184.45 168.384 182.336 167.135C180.227 165.89 176.816 164.877 172.528 167.145C169.187 168.911 167.484 172.092 167.729 176.105C167.915 179.266 169.267 182.055 169.678 182.833Z" fill="#F8A41B"/>
<path d="M66.3704 169.893C65.2484 169.537 64.0512 170.164 63.7006 171.287C63.345 172.411 63.9711 173.61 65.0931 173.962C66.2152 174.318 67.4073 173.691 67.763 172.567C68.1136 171.443 67.4925 170.244 66.3704 169.893ZM67.5125 172.487C67.2019 173.475 66.15 174.022 65.1683 173.711C64.1815 173.4 63.6355 172.346 63.946 171.363C64.2566 170.374 65.3085 169.827 66.2903 170.139C67.2771 170.45 67.8231 171.503 67.5125 172.487ZM66.3704 169.893C65.2484 169.537 64.0512 170.164 63.7006 171.287C63.345 172.411 63.9711 173.61 65.0931 173.962C66.2152 174.318 67.4073 173.691 67.763 172.567C68.1136 171.443 67.4925 170.244 66.3704 169.893ZM67.5125 172.487C67.2019 173.475 66.15 174.022 65.1683 173.711C64.1815 173.4 63.6355 172.346 63.946 171.363C64.2566 170.374 65.3085 169.827 66.2903 170.139C67.2771 170.45 67.8231 171.503 67.5125 172.487ZM66.3704 169.893C65.2484 169.537 64.0512 170.164 63.7006 171.287C63.345 172.411 63.9711 173.61 65.0931 173.962C66.2152 174.318 67.4073 173.691 67.763 172.567C68.1136 171.443 67.4925 170.244 66.3704 169.893ZM67.5125 172.487C67.2019 173.475 66.15 174.022 65.1683 173.711C64.1815 173.4 63.6355 172.346 63.946 171.363C64.2566 170.374 65.3085 169.827 66.2903 170.139C67.2771 170.45 67.8231 171.503 67.5125 172.487ZM67.0817 167.635C64.7174 166.888 62.1929 168.207 61.4515 170.57C60.7052 172.938 62.0175 175.462 64.3868 176.209C66.7511 176.957 69.2707 175.637 70.017 173.269C70.7584 170.911 69.446 168.383 67.0817 167.635ZM68.0785 172.667C67.6728 173.967 66.2853 174.689 64.9929 174.278C63.7006 173.871 62.9793 172.482 63.385 171.187C63.7908 169.888 65.1783 169.17 66.4706 169.577C67.763 169.983 68.4843 171.373 68.0785 172.667ZM67.763 172.567C68.1186 171.443 67.4925 170.244 66.3754 169.893C65.2534 169.537 64.0562 170.164 63.7056 171.287C63.35 172.411 63.9761 173.61 65.0981 173.962C66.2101 174.313 67.4073 173.691 67.763 172.567ZM67.5125 172.487C67.2019 173.475 66.15 174.022 65.1683 173.711C64.1815 173.4 63.6355 172.346 63.946 171.363C64.2566 170.374 65.3085 169.827 66.2903 170.139C67.2771 170.45 67.8231 171.503 67.5125 172.487ZM66.3704 169.893C65.2484 169.537 64.0512 170.164 63.7006 171.287C63.345 172.411 63.9711 173.61 65.0931 173.962C66.2152 174.318 67.4073 173.691 67.763 172.567C68.1136 171.443 67.4925 170.244 66.3704 169.893ZM67.5125 172.487C67.2019 173.475 66.15 174.022 65.1683 173.711C64.1815 173.4 63.6355 172.346 63.946 171.363C64.2566 170.374 65.3085 169.827 66.2903 170.139C67.2771 170.45 67.8231 171.503 67.5125 172.487ZM66.3704 169.893C65.2484 169.537 64.0512 170.164 63.7006 171.287C63.345 172.411 63.9711 173.61 65.0931 173.962C66.2152 174.318 67.4073 173.691 67.763 172.567C68.1136 171.443 67.4925 170.244 66.3704 169.893ZM67.5125 172.487C67.2019 173.475 66.15 174.022 65.1683 173.711C64.1815 173.4 63.6355 172.346 63.946 171.363C64.2566 170.374 65.3085 169.827 66.2903 170.139C67.2771 170.45 67.8231 171.503 67.5125 172.487Z" fill="#455A64"/>
<path d="M65.2584 176.294L63.6155 175.777L63.335 176.971L64.8026 177.433L65.2584 176.294Z" fill="#455A64"/>
<path d="M62.3032 174.754L61.5017 173.219L60.4648 173.866L61.1711 175.231L62.3032 174.754Z" fill="#455A64"/>
<path d="M61.3011 171.563L61.8171 169.913L60.6249 169.637L60.1641 171.107L61.3011 171.563Z" fill="#455A64"/>
<path d="M62.8391 168.598L64.3719 167.8L63.7257 166.762L62.3633 167.469L62.8391 168.598Z" fill="#455A64"/>
<path d="M66.0244 167.595L67.6724 168.117L67.9479 166.923L66.4802 166.461L66.0244 167.595Z" fill="#455A64"/>
<path d="M68.9854 169.141L69.7818 170.676L70.8187 170.024L70.1124 168.664L68.9854 169.141Z" fill="#455A64"/>
<path d="M69.9868 172.33L69.4658 173.976L70.658 174.257L71.1188 172.787L69.9868 172.33Z" fill="#455A64"/>
<path d="M68.4439 175.291L66.9111 176.094L67.5623 177.132L68.9198 176.425L68.4439 175.291Z" fill="#455A64"/>
<path d="M149.421 155.553C151.68 152.508 151.044 148.204 147.999 145.941C144.953 143.678 140.655 144.315 138.401 147.361C136.142 150.411 136.778 154.716 139.824 156.978C142.864 159.241 147.162 158.604 149.421 155.553ZM146.486 153.371C145.429 154.796 143.425 155.092 142.003 154.038C140.58 152.98 140.285 150.973 141.342 149.548C142.398 148.123 144.402 147.827 145.825 148.886C147.242 149.939 147.538 151.951 146.486 153.371Z" fill="#263238"/>
<path d="M141.051 157.54L138.932 155.965L137.936 157.55L139.819 158.955L141.051 157.54Z" fill="#263238"/>
<path d="M137.55 153.823L137.159 151.209L135.336 151.63L135.677 153.953L137.55 153.823Z" fill="#263238"/>
<path d="M137.69 148.72L139.263 146.598L137.675 145.6L136.277 147.486L137.69 148.72Z" fill="#263238"/>
<path d="M141.397 145.209L144.006 144.822L143.591 142.996L141.271 143.337L141.397 145.209Z" fill="#263238"/>
<path d="M146.496 145.354L148.615 146.93L149.612 145.339L147.728 143.939L146.496 145.354Z" fill="#263238"/>
<path d="M150.003 149.066L150.389 151.68L152.212 151.263L151.871 148.936L150.003 149.066Z" fill="#263238"/>
<path d="M149.857 154.174L148.284 156.296L149.872 157.294L151.27 155.408L149.857 154.174Z" fill="#263238"/>
<path d="M146.151 157.682L143.541 158.068L143.957 159.899L146.276 159.553L146.151 157.682Z" fill="#263238"/>
<path d="M141.452 151.79L142.91 153.632L145.229 153.285L146.091 151.103L144.633 149.262L142.314 149.603L141.452 151.79ZM144.217 150.847C144.548 151.093 144.618 151.56 144.372 151.891C144.127 152.222 143.661 152.292 143.331 152.046C143 151.8 142.93 151.334 143.175 151.003C143.421 150.672 143.887 150.601 144.217 150.847Z" fill="#263238"/>
<path d="M135.345 58.6818C134.363 58.3707 133.316 58.9176 133.005 59.9009C132.695 60.8843 133.241 61.9328 134.223 62.2439C135.204 62.5549 136.251 62.0081 136.557 61.0247C136.873 60.0364 136.327 58.9878 135.345 58.6818ZM136.347 60.9545C136.076 61.8174 135.154 62.2991 134.293 62.0281C133.431 61.7572 132.95 60.8341 133.226 59.9712C133.496 59.1082 134.418 58.6266 135.28 58.9025C136.136 59.1684 136.617 60.0916 136.347 60.9545ZM135.345 58.6818C134.363 58.3707 133.316 58.9176 133.005 59.9009C132.695 60.8843 133.241 61.9328 134.223 62.2439C135.204 62.5549 136.251 62.0081 136.557 61.0247C136.873 60.0364 136.327 58.9878 135.345 58.6818ZM136.347 60.9545C136.076 61.8174 135.154 62.2991 134.293 62.0281C133.431 61.7572 132.95 60.8341 133.226 59.9712C133.496 59.1082 134.418 58.6266 135.28 58.9025C136.136 59.1684 136.617 60.0916 136.347 60.9545ZM135.345 58.6818C134.363 58.3707 133.316 58.9176 133.005 59.9009C132.695 60.8843 133.241 61.9328 134.223 62.2439C135.204 62.5549 136.251 62.0081 136.557 61.0247C136.873 60.0364 136.327 58.9878 135.345 58.6818ZM136.347 60.9545C136.076 61.8174 135.154 62.2991 134.293 62.0281C133.431 61.7572 132.95 60.8341 133.226 59.9712C133.496 59.1082 134.418 58.6266 135.28 58.9025C136.136 59.1684 136.617 60.0916 136.347 60.9545ZM135.966 56.7101C133.897 56.0579 131.688 57.2068 131.037 59.2788C130.386 61.3508 131.533 63.5634 133.602 64.2156C135.67 64.8678 137.874 63.7189 138.531 61.6468C139.182 59.5698 138.035 57.3623 135.966 56.7101ZM136.837 61.11C136.482 62.2439 135.27 62.876 134.138 62.5198C133.005 62.1636 132.374 60.9495 132.73 59.8156C133.086 58.6818 134.298 58.0496 135.43 58.4058C136.562 58.762 137.193 59.9762 136.837 61.11ZM136.562 61.0197C136.873 60.0364 136.327 58.9878 135.345 58.6768C134.363 58.3657 133.316 58.9126 133.005 59.8959C132.695 60.8792 133.241 61.9278 134.223 62.2389C135.204 62.5499 136.251 62.0031 136.562 61.0197ZM136.347 60.9545C136.076 61.8174 135.154 62.2991 134.293 62.0281C133.431 61.7572 132.95 60.8341 133.226 59.9712C133.496 59.1082 134.418 58.6266 135.28 58.9025C136.136 59.1684 136.617 60.0916 136.347 60.9545ZM135.345 58.6818C134.363 58.3707 133.316 58.9176 133.005 59.9009C132.695 60.8843 133.241 61.9328 134.223 62.2439C135.204 62.5549 136.251 62.0081 136.557 61.0247C136.873 60.0364 136.327 58.9878 135.345 58.6818ZM136.347 60.9545C136.076 61.8174 135.154 62.2991 134.293 62.0281C133.431 61.7572 132.95 60.8341 133.226 59.9712C133.496 59.1082 134.418 58.6266 135.28 58.9025C136.136 59.1684 136.617 60.0916 136.347 60.9545ZM135.345 58.6818C134.363 58.3707 133.316 58.9176 133.005 59.9009C132.695 60.8843 133.241 61.9328 134.223 62.2439C135.204 62.5549 136.251 62.0081 136.557 61.0247C136.873 60.0364 136.327 58.9878 135.345 58.6818ZM136.347 60.9545C136.076 61.8174 135.154 62.2991 134.293 62.0281C133.431 61.7572 132.95 60.8341 133.226 59.9712C133.496 59.1082 134.418 58.6266 135.28 58.9025C136.136 59.1684 136.617 60.0916 136.347 60.9545Z" fill="#263238"/>
<path d="M134.373 64.2847L132.931 63.8281L132.69 64.8767L133.973 65.278L134.373 64.2847Z" fill="#263238"/>
<path d="M131.784 62.9314L131.087 61.5918L130.176 62.1587L130.797 63.3528L131.784 62.9314Z" fill="#263238"/>
<path d="M130.907 60.1417L131.363 58.7018L130.316 58.4609L129.91 59.7403L130.907 60.1417Z" fill="#263238"/>
<path d="M132.255 57.5469L133.597 56.8495L133.026 55.9414L131.839 56.5585L132.255 57.5469Z" fill="#263238"/>
<path d="M135.039 56.6692L136.482 57.1257L136.722 56.0771L135.44 55.6758L135.039 56.6692Z" fill="#263238"/>
<path d="M137.629 58.023L138.33 59.3625L139.237 58.7956L138.616 57.6016L137.629 58.023Z" fill="#263238"/>
<path d="M138.505 60.8125L138.055 62.2524L139.097 62.4982L139.502 61.2139L138.505 60.8125Z" fill="#263238"/>
<path d="M137.158 63.4062L135.815 64.1036L136.386 65.0167L137.579 64.3946L137.158 63.4062Z" fill="#263238"/>
<path d="M53.096 67.1798C53.8674 64.004 51.9239 60.8031 48.7531 60.0305C45.5824 59.2579 42.3866 61.2045 41.6152 64.3803C40.8438 67.5561 42.7873 70.757 45.9581 71.5296C49.1238 72.3022 52.3246 70.3556 53.096 67.1798ZM50.0355 66.4323C49.6748 67.9173 48.1821 68.8254 46.7044 68.4642C45.2217 68.103 44.3151 66.6079 44.6758 65.1228C45.0364 63.6378 46.5291 62.7297 48.0118 63.0909C49.4895 63.4572 50.3961 64.9472 50.0355 66.4323Z" fill="#263238"/>
<path d="M47.1158 71.5603L44.9118 71.0234L44.6514 72.6138L46.6149 73.0955L47.1158 71.5603Z" fill="#263238"/>
<path d="M43.0979 69.7893L41.9158 67.8477L40.6084 68.7909L41.6553 70.5167L43.0979 69.7893Z" fill="#263238"/>
<path d="M41.5054 65.6911L42.0414 63.4785L40.4485 63.2227L39.9727 65.1893L41.5054 65.6911Z" fill="#263238"/>
<path d="M43.2733 61.6615L45.2118 60.4824L44.2701 59.168L42.542 60.2216L43.2733 61.6615Z" fill="#263238"/>
<path d="M47.3662 60.0665L49.5702 60.6083L49.8307 59.0129L47.8671 58.5312L47.3662 60.0665Z" fill="#263238"/>
<path d="M51.3838 61.8368L52.5659 63.7835L53.8733 62.8352L52.8264 61.1094L51.3838 61.8368Z" fill="#263238"/>
<path d="M52.9764 65.9355L52.4404 68.1481L54.0333 68.409L54.5092 66.4423L52.9764 65.9355Z" fill="#263238"/>
<path d="M51.208 69.9648L49.2695 71.1489L50.2112 72.4583L51.9394 71.4047L51.208 69.9648Z" fill="#263238"/>
<path d="M45.5127 66.8645L47.2859 67.8378L49.0141 66.7842L48.969 64.7624L47.2008 63.7891L45.4727 64.8376L45.5127 66.8645ZM47.3911 65.1888C47.7368 65.2741 47.9471 65.6203 47.862 65.9614C47.7768 66.3026 47.4312 66.5183 47.0906 66.4331C46.75 66.3478 46.5346 66.0016 46.6197 65.6604C46.6999 65.3193 47.0505 65.1085 47.3911 65.1888Z" fill="#263238"/>
</svg>
