<svg width="241" height="53" viewBox="0 0 241 53" fill="none" xmlns="http://www.w3.org/2000/svg">
<path d="M205.8 27.8987C204.689 27.1384 203.476 26.6316 202.263 25.9726C201.505 25.5671 200.696 25.1617 200.039 24.6041C198.928 23.6917 199.13 21.867 200.343 21.056C202.01 19.9409 204.79 20.5492 205.093 22.8301C205.093 22.8808 205.143 22.9314 205.194 22.9314H207.721C207.771 22.9314 207.822 22.8808 207.822 22.8301C207.67 21.2588 207.064 19.9409 205.952 19.0793C204.891 18.2683 203.678 17.8628 202.364 17.8628C195.694 17.8628 195.087 24.9589 198.675 27.1891C199.079 27.4425 202.617 29.2166 203.88 30.0276C205.143 30.7879 205.497 32.2071 204.992 33.3222C204.486 34.3359 203.223 35.0455 201.96 34.9441C200.545 34.8428 199.484 34.0825 199.079 32.9167C199.029 32.7139 198.978 32.3084 198.978 32.1057C198.978 32.055 198.928 32.0043 198.877 32.0043H196.148C196.098 32.0043 196.047 32.055 196.047 32.1057C196.047 34.0825 196.553 35.1976 197.867 36.2113C199.13 37.1744 200.494 37.5798 201.96 37.5798C205.699 37.5798 207.619 35.451 208.024 33.2715C208.327 31.1427 207.72 29.2166 205.8 27.8987Z" fill="white"/>
<path d="M86.6934 18.2686H85.4806H84.1668C84.1163 18.2686 84.0657 18.3192 84.0657 18.3192L81.7917 25.7702C81.7412 25.8715 81.6401 25.8715 81.5896 25.7702L79.3156 18.3192C79.3156 18.2686 79.2651 18.2686 79.2145 18.2686H77.9007H76.6879H75.0708C75.0203 18.2686 74.9697 18.3192 74.9697 18.3699V37.3774C74.9697 37.4281 75.0203 37.4787 75.0708 37.4787H77.7996C77.8501 37.4787 77.9007 37.4281 77.9007 37.3774V22.9317C77.9007 22.8303 78.0523 22.7796 78.1028 22.881L80.3768 30.3826L80.5284 30.8895C80.5284 30.9402 80.5789 30.9402 80.6295 30.9402H82.7519C82.8024 30.9402 82.8529 30.8895 82.8529 30.8895L83.0045 30.3826L85.2785 22.881C85.329 22.7796 85.4806 22.7797 85.4806 22.9317V37.3774C85.4806 37.4281 85.5312 37.4787 85.5817 37.4787H88.3105C88.361 37.4787 88.4116 37.4281 88.4116 37.3774V18.3699C88.4116 18.3192 88.361 18.2686 88.3105 18.2686H86.6934Z" fill="white"/>
<path d="M163.807 18.2686C163.757 18.2686 163.706 18.3192 163.706 18.3192L161.432 25.7702C161.382 25.8715 161.28 25.8715 161.23 25.7702L158.956 18.3192C158.956 18.2686 158.905 18.2686 158.855 18.2686H154.661C154.61 18.2686 154.56 18.3192 154.56 18.3699V37.3774C154.56 37.4281 154.61 37.4787 154.661 37.4787H157.389C157.44 37.4787 157.491 37.4281 157.491 37.3774V22.9317C157.491 22.8303 157.642 22.7796 157.693 22.881L159.967 30.3826L160.118 30.8895C160.118 30.9402 160.169 30.9402 160.219 30.9402H162.342C162.392 30.9402 162.443 30.8895 162.443 30.8895L162.594 30.3826L164.868 22.881C164.919 22.7796 165.07 22.7797 165.07 22.9317V37.3774C165.07 37.4281 165.121 37.4787 165.172 37.4787H167.9C167.951 37.4787 168.001 37.4281 168.001 37.3774V18.3699C168.001 18.3192 167.951 18.2686 167.9 18.2686H163.807Z" fill="white"/>
<path d="M128.434 18.2686H123.33H120.601H115.447C115.396 18.2686 115.346 18.3192 115.346 18.3699V20.7522C115.346 20.8029 115.396 20.8536 115.447 20.8536H120.45V37.3774C120.45 37.4281 120.5 37.4787 120.551 37.4787H123.279C123.33 37.4787 123.381 37.4281 123.381 37.3774V20.8536H128.383C128.434 20.8536 128.484 20.8029 128.484 20.7522V18.3699C128.535 18.3192 128.484 18.2686 128.434 18.2686Z" fill="white"/>
<path d="M144.605 37.4782H147.081C147.131 37.4782 147.182 37.4275 147.182 37.3261L142.027 18.268C142.027 18.2173 141.977 18.2173 141.926 18.2173H140.966H139.299H138.338C138.288 18.2173 138.237 18.268 138.237 18.268L133.083 37.3261C133.083 37.3768 133.134 37.4782 133.184 37.4782H135.66C135.711 37.4782 135.761 37.4275 135.761 37.4275L137.277 31.852C137.277 31.8013 137.328 31.8013 137.378 31.8013H142.886C142.937 31.8013 142.988 31.852 142.988 31.852L144.504 37.4275C144.504 37.4275 144.554 37.4782 144.605 37.4782ZM138.035 29.0642L140.057 21.6133C140.107 21.5119 140.208 21.5119 140.259 21.6133L142.28 29.0642C142.28 29.1149 142.23 29.2163 142.179 29.2163H138.187C138.086 29.2163 138.035 29.1149 138.035 29.0642Z" fill="white"/>
<path d="M187.153 37.4782H189.63C189.68 37.4782 189.731 37.4275 189.731 37.3261L184.576 18.268C184.576 18.2173 184.526 18.2173 184.475 18.2173H183.515H181.847H180.887C180.837 18.2173 180.786 18.268 180.786 18.268L175.632 37.3261C175.632 37.3768 175.682 37.4782 175.733 37.4782H178.209C178.26 37.4782 178.31 37.4275 178.31 37.4275L179.826 31.852C179.826 31.8013 179.877 31.8013 179.927 31.8013H185.435C185.486 31.8013 185.536 31.852 185.536 31.852L187.052 37.4275C187.052 37.4275 187.103 37.4782 187.153 37.4782ZM180.584 29.0642L182.605 21.6133C182.656 21.5119 182.757 21.5119 182.808 21.6133L184.829 29.0642C184.829 29.1149 184.778 29.2163 184.728 29.2163H180.736C180.635 29.2163 180.584 29.1149 180.584 29.0642Z" fill="white"/>
<path d="M99.5291 34.6403V28.7607C99.5291 28.71 99.5796 28.6593 99.6301 28.6593H106.957C107.008 28.6593 107.059 28.6086 107.059 28.5579V26.1756C107.059 26.125 107.008 26.0743 106.957 26.0743H99.6301C99.5796 26.0743 99.5291 26.0236 99.5291 25.9729V20.9549C99.5291 20.9042 99.5796 20.8536 99.6301 20.8536H107.918C107.968 20.8536 108.019 20.8029 108.019 20.7522V18.3699C108.019 18.3192 107.968 18.2686 107.918 18.2686H99.5291H96.6992C96.6487 18.2686 96.5981 18.3192 96.5981 18.3699V20.8536V26.125V28.71V34.7924V37.3774C96.5981 37.4281 96.6487 37.4787 96.6992 37.4787H99.5291H108.271C108.322 37.4787 108.372 37.4281 108.372 37.3774V34.8937C108.372 34.843 108.322 34.7924 108.271 34.7924H99.5796C99.5796 34.7417 99.5291 34.691 99.5291 34.6403Z" fill="white"/>
<path d="M230.865 37.2754L221.364 27.4422C221.314 27.3915 221.314 27.3409 221.364 27.2902L229.904 18.3693C229.955 18.3187 229.904 18.2173 229.854 18.2173H226.367C226.317 18.2173 226.317 18.2173 226.317 18.268L219.04 25.871C218.989 25.9216 218.888 25.8709 218.888 25.8203V18.42C218.888 18.3693 218.838 18.3187 218.787 18.3187H216.008C215.957 18.3187 215.907 18.3693 215.907 18.42V37.4275C215.907 37.4782 215.957 37.5288 216.008 37.5288H218.737C218.787 37.5288 218.838 37.4782 218.838 37.4275V29.0642C218.838 28.9628 218.939 28.9121 218.989 29.0135L227.176 37.5288L227.226 37.5795H230.713C230.865 37.4782 230.915 37.3261 230.865 37.2754Z" fill="white"/>
<path d="M56.2219 8.02979L39.647 20.3973L42.7295 13.0984L56.2219 8.02979Z" fill="#E17726" stroke="#E17726" stroke-linecap="round" stroke-linejoin="round"/>
<path d="M17.9175 8.02979L34.3913 20.4987L31.4604 13.0984L17.9175 8.02979Z" fill="#E27625" stroke="#E27625" stroke-linecap="round" stroke-linejoin="round"/>
<path d="M50.2585 36.6675L45.8115 43.4595L55.3118 46.0952L57.99 36.8195L50.2585 36.6675Z" fill="#E27625" stroke="#E27625" stroke-linecap="round" stroke-linejoin="round"/>
<path d="M16.1992 36.8195L18.8775 46.0952L28.3272 43.4595L23.9308 36.6675L16.1992 36.8195Z" fill="#E27625" stroke="#E27625" stroke-linecap="round" stroke-linejoin="round"/>
<path d="M27.8221 25.2124L25.1943 29.2167L34.543 29.6222L34.2398 19.4849L27.8221 25.2124Z" fill="#E27625" stroke="#E27625" stroke-linecap="round" stroke-linejoin="round"/>
<path d="M46.3674 25.2127L39.8486 19.3838L39.6465 29.6225L48.9951 29.217L46.3674 25.2127Z" fill="#E27625" stroke="#E27625" stroke-linecap="round" stroke-linejoin="round"/>
<path d="M28.3271 43.4599L33.9869 40.7228L29.0851 36.8706L28.3271 43.4599Z" fill="#E27625" stroke="#E27625" stroke-linecap="round" stroke-linejoin="round"/>
<path d="M40.2026 40.7228L45.8118 43.4599L45.0538 36.8706L40.2026 40.7228Z" fill="#E27625" stroke="#E27625" stroke-linecap="round" stroke-linejoin="round"/>
<path d="M45.8118 43.4597L40.2026 40.7227L40.6574 44.3721L40.6069 45.9434L45.8118 43.4597Z" fill="#D5BFB2" stroke="#D5BFB2" stroke-linecap="round" stroke-linejoin="round"/>
<path d="M28.3271 43.4597L33.5826 45.9434L33.5321 44.3721L33.9869 40.7227L28.3271 43.4597Z" fill="#D5BFB2" stroke="#D5BFB2" stroke-linecap="round" stroke-linejoin="round"/>
<path d="M33.684 34.4375L28.9844 33.0689L32.269 31.5483L33.684 34.4375Z" fill="#233447" stroke="#233447" stroke-linecap="round" stroke-linejoin="round"/>
<path d="M40.5059 34.4375L41.8703 31.5483L45.2055 33.0689L40.5059 34.4375Z" fill="#233447" stroke="#233447" stroke-linecap="round" stroke-linejoin="round"/>
<path d="M28.3275 43.4595L29.1361 36.6675L23.9312 36.8195L28.3275 43.4595Z" fill="#CC6228" stroke="#CC6228" stroke-linecap="round" stroke-linejoin="round"/>
<path d="M45.0542 36.6675L45.8122 43.4595L50.2591 36.8195L45.0542 36.6675Z" fill="#CC6228" stroke="#CC6228" stroke-linecap="round" stroke-linejoin="round"/>
<path d="M48.9956 29.2168L39.647 29.6223L40.506 34.4375L41.8704 31.5484L45.2056 33.069L48.9956 29.2168Z" fill="#CC6228" stroke="#CC6228" stroke-linecap="round" stroke-linejoin="round"/>
<path d="M28.9843 33.069L32.269 31.5484L33.6839 34.4375L34.543 29.6223L25.1943 29.2168L28.9843 33.069Z" fill="#CC6228" stroke="#CC6228" stroke-linecap="round" stroke-linejoin="round"/>
<path d="M25.1943 29.2168L29.0854 36.8705L28.9843 33.069L25.1943 29.2168Z" fill="#E27525" stroke="#E27525" stroke-linecap="round" stroke-linejoin="round"/>
<path d="M45.2053 33.069L45.0537 36.8705L48.9953 29.2168L45.2053 33.069Z" fill="#E27525" stroke="#E27525" stroke-linecap="round" stroke-linejoin="round"/>
<path d="M34.5432 29.6226L33.6841 34.4378L34.7453 40.1653L34.998 32.6131L34.5432 29.6226Z" fill="#E27525" stroke="#E27525" stroke-linecap="round" stroke-linejoin="round"/>
<path d="M39.6467 29.6226L39.1919 32.6131L39.394 40.1653L40.5058 34.4378L39.6467 29.6226Z" fill="#E27525" stroke="#E27525" stroke-linecap="round" stroke-linejoin="round"/>
<path d="M40.5058 34.4374L39.394 40.165L40.2026 40.7225L45.0538 36.8703L45.2054 33.0688L40.5058 34.4374Z" fill="#F5841F" stroke="#F5841F" stroke-linecap="round" stroke-linejoin="round"/>
<path d="M28.9844 33.0688L29.0854 36.8703L33.9872 40.7225L34.7452 40.165L33.684 34.4374L28.9844 33.0688Z" fill="#F5841F" stroke="#F5841F" stroke-linecap="round" stroke-linejoin="round"/>
<path d="M40.6067 45.9431L40.6573 44.3718L40.2025 44.017H33.9363L33.5321 44.3718L33.5826 45.9431L28.3271 43.4595L30.1463 44.9801L33.8858 47.5651H40.253L43.9924 44.9801L45.8116 43.4595L40.6067 45.9431Z" fill="#C0AC9D" stroke="#C0AC9D" stroke-linecap="round" stroke-linejoin="round"/>
<path d="M40.2026 40.7226L39.3941 40.165H34.745L33.987 40.7226L33.5322 44.372L33.9365 44.0172H40.2026L40.6574 44.372L40.2026 40.7226Z" fill="white" stroke="white" stroke-linecap="round" stroke-linejoin="round"/>
<path d="M56.9291 21.2083L58.3441 14.3656L56.2217 8.02979L40.2026 19.9918L46.3677 25.2125L55.0594 27.7468L56.9797 25.5166L56.1711 24.9084L57.485 23.6919L56.4743 22.8809L57.7882 21.8672L56.9291 21.2083Z" fill="#763E1A" stroke="#763E1A" stroke-linecap="round" stroke-linejoin="round"/>
<path d="M15.8457 14.3656L17.2606 21.2083L16.351 21.8672L17.6649 22.8809L16.6542 23.6919L18.0186 24.9084L17.1596 25.5166L19.0798 27.7468L27.8221 25.2125L33.9871 19.9918L17.9176 8.02979L15.8457 14.3656Z" fill="#763E1A" stroke="#763E1A" stroke-linecap="round" stroke-linejoin="round"/>
<path d="M55.0598 27.7467L46.3681 25.2124L48.9958 29.2166L45.0542 36.8703L50.2591 36.8196H57.9907L55.0598 27.7467Z" fill="#F5841F" stroke="#F5841F" stroke-linecap="round" stroke-linejoin="round"/>
<path d="M27.8219 25.2124L19.0796 27.7467L16.1992 36.8196H23.9308L29.0852 36.8703L25.1941 29.2166L27.8219 25.2124Z" fill="#F5841F" stroke="#F5841F" stroke-linecap="round" stroke-linejoin="round"/>
<path d="M39.6468 29.6224L40.2027 19.992L42.7294 13.0986H31.4604L33.9871 19.992L34.543 29.6224L34.7451 32.6636V40.1652H39.3942V32.6636L39.6468 29.6224Z" fill="#F5841F" stroke="#F5841F" stroke-linecap="round" stroke-linejoin="round"/>
</svg>
