<svg width="21" height="21" viewBox="0 0 21 21" fill="none" xmlns="http://www.w3.org/2000/svg">
<path fill-rule="evenodd" clip-rule="evenodd" d="M7.929 7.4983H11.643V9.3483C12.178 8.2843 13.55 7.3283 15.611 7.3283C19.562 7.3283 20.5 9.4463 20.5 13.3323V20.5293H16.5V14.2173C16.5 12.0043 15.965 10.7563 14.603 10.7563C12.714 10.7563 11.929 12.1013 11.929 14.2163V20.5293H7.929V7.4983ZM1.07 20.3593H5.07V7.3283H1.07V20.3593ZM5.643 3.0793C5.64315 3.41457 5.57666 3.74653 5.44739 4.05588C5.31812 4.36524 5.12865 4.64581 4.89 4.8813C4.4064 5.36192 3.75181 5.63095 3.07 5.6293C2.38939 5.62884 1.73631 5.3605 1.252 4.8823C1.01421 4.64601 0.825386 4.36512 0.696344 4.05573C0.567301 3.74634 0.500579 3.41452 0.5 3.0793C0.5 2.4023 0.77 1.7543 1.253 1.2763C1.73689 0.797455 2.39024 0.528998 3.071 0.529297C3.753 0.529297 4.407 0.798297 4.89 1.2763C5.372 1.7543 5.643 2.4023 5.643 3.0793Z" fill="url(#paint0_linear_293_3096)"/>
<defs>
<linearGradient id="paint0_linear_293_3096" x1="15.2466" y1="24.0394" x2="0.517026" y2="5.39449" gradientUnits="userSpaceOnUse">
<stop stop-color="#FFDE5C"/>
<stop offset="0.4762" stop-color="#FFC970"/>
<stop offset="0.9557" stop-color="#FFB980"/>
</linearGradient>
</defs>
</svg>
