<svg width="24" height="24" viewBox="0 0 24 24" fill="none" xmlns="http://www.w3.org/2000/svg">
<path d="M21.24 6.26816C20.548 6.5747 19.814 6.77581 19.0625 6.8648C19.8541 6.39113 20.4465 5.64579 20.7293 4.76768C19.9852 5.20941 19.1709 5.52046 18.3218 5.68736C17.9671 5.30898 17.5384 5.00749 17.0624 4.80156C16.5863 4.59564 16.0731 4.48968 15.5544 4.49024C13.4606 4.49024 11.7629 6.18752 11.7629 8.28176C11.7629 8.57864 11.7965 8.86832 11.8613 9.146C8.71008 8.98784 5.91648 7.47824 4.0464 5.18408C3.70921 5.76273 3.53204 6.42067 3.53304 7.0904C3.53254 7.71464 3.68625 8.32934 3.98051 8.87988C4.27476 9.43041 4.70045 9.89974 5.21976 10.2462C4.61777 10.227 4.02904 10.0644 3.50256 9.77192C3.50208 9.78776 3.50208 9.80336 3.50208 9.81968C3.50208 11.6562 4.80888 13.1886 6.54312 13.5373C5.9847 13.6884 5.39921 13.7106 4.83096 13.6021C5.31336 15.1081 6.71352 16.2046 8.37264 16.2354C7.02958 17.2893 5.37108 17.861 3.66384 17.8585C3.35784 17.8585 3.05616 17.8407 2.75928 17.8054C4.49288 18.9193 6.51051 19.5105 8.57112 19.5085C15.545 19.5085 19.3586 13.7314 19.3586 8.72168C19.3586 8.55752 19.3548 8.3936 19.3476 8.23064C20.0903 7.69445 20.7312 7.02984 21.24 6.26816Z" fill="url(#paint0_linear_293_1517)"/>
<defs>
<linearGradient id="paint0_linear_293_1517" x1="16.3856" y1="22.1443" x2="6.04824" y2="6.04218" gradientUnits="userSpaceOnUse">
<stop stop-color="#FFDE5C"/>
<stop offset="0.4762" stop-color="#FFC970"/>
<stop offset="0.9557" stop-color="#FFB980"/>
</linearGradient>
</defs>
</svg>
